<?xml version="1.0" encoding="UTF-8" standalone="no"?>
<!-- Created with Inkscape (http://www.inkscape.org/) -->

<svg
   xmlns:osb="http://www.openswatchbook.org/uri/2009/osb"
   xmlns:dc="http://purl.org/dc/elements/1.1/"
   xmlns:cc="http://creativecommons.org/ns#"
   xmlns:rdf="http://www.w3.org/1999/02/22-rdf-syntax-ns#"
   xmlns:svg="http://www.w3.org/2000/svg"
   xmlns="http://www.w3.org/2000/svg"
   xmlns:xlink="http://www.w3.org/1999/xlink"
   xmlns:sodipodi="http://sodipodi.sourceforge.net/DTD/sodipodi-0.dtd"
   xmlns:inkscape="http://www.inkscape.org/namespaces/inkscape"
   width="210mm"
   height="297mm"
   id="svg2"
   version="1.1"
   inkscape:version="0.48.4 r9939"
   sodipodi:docname="jar2pom.svg"
   inkscape:export-filename="C:\Developpement\jar2pom.png"
   inkscape:export-xdpi="90"
   inkscape:export-ydpi="90">
  <defs
     id="defs4">
    <marker
       inkscape:stockid="EmptyTriangleOutL"
       orient="auto"
       refY="0.0"
       refX="0.0"
       id="EmptyTriangleOutL"
       style="overflow:visible">
      <path
         id="path4129"
         d="M 5.77,0.0 L -2.88,5.0 L -2.88,-5.0 L 5.77,0.0 z "
         style="fill-rule:evenodd;fill:#FFFFFF;stroke:#000000;stroke-width:1.0pt"
         transform="scale(0.8) translate(-6,0)" />
    </marker>
    <marker
       inkscape:stockid="Tail"
       orient="auto"
       refY="0.0"
       refX="0.0"
       id="Tail"
       style="overflow:visible">
      <g
         id="g4005"
         transform="scale(-1.2)">
        <path
           id="path4007"
           d="M -3.8048674,-3.9585227 L 0.54352094,0"
           style="fill:none;fill-rule:evenodd;stroke:#000000;stroke-width:0.8;stroke-linecap:round" />
        <path
           id="path4009"
           d="M -1.2866832,-3.9585227 L 3.0617053,0"
           style="fill:none;fill-rule:evenodd;stroke:#000000;stroke-width:0.8;stroke-linecap:round" />
        <path
           id="path4011"
           d="M 1.3053582,-3.9585227 L 5.6537466,0"
           style="fill:none;fill-rule:evenodd;stroke:#000000;stroke-width:0.8;stroke-linecap:round" />
        <path
           id="path4013"
           d="M -3.8048674,4.1775838 L 0.54352094,0.21974226"
           style="fill:none;fill-rule:evenodd;stroke:#000000;stroke-width:0.8;stroke-linecap:round" />
        <path
           id="path4015"
           d="M -1.2866832,4.1775838 L 3.0617053,0.21974226"
           style="fill:none;fill-rule:evenodd;stroke:#000000;stroke-width:0.8;stroke-linecap:round" />
        <path
           id="path4017"
           d="M 1.3053582,4.1775838 L 5.6537466,0.21974226"
           style="fill:none;fill-rule:evenodd;stroke:#000000;stroke-width:0.8;stroke-linecap:round" />
      </g>
    </marker>
    <marker
       inkscape:stockid="EmptyDiamondM"
       orient="auto"
       refY="0.0"
       refX="0.0"
       id="EmptyDiamondM"
       style="overflow:visible">
      <path
         id="path4078"
         d="M 0,-7.0710768 L -7.0710894,0 L 0,7.0710589 L 7.0710462,0 L 0,-7.0710768 z "
         style="fill-rule:evenodd;fill:#FFFFFF;stroke:#000000;stroke-width:1.0pt"
         transform="scale(0.4)" />
    </marker>
    <marker
       inkscape:stockid="Arrow2Mend"
       orient="auto"
       refY="0.0"
       refX="0.0"
       id="Arrow2Mend"
       style="overflow:visible;">
      <path
         id="path3996"
         style="fill-rule:evenodd;stroke-width:0.62500000;stroke-linejoin:round;"
         d="M 8.7185878,4.0337352 L -2.2072895,0.016013256 L 8.7185884,-4.0017078 C 6.9730900,-1.6296469 6.9831476,1.6157441 8.7185878,4.0337352 z "
         transform="scale(0.6) rotate(180) translate(0,0)" />
    </marker>
    <linearGradient
       inkscape:collect="always"
       id="linearGradient8852">
      <stop
         style="stop-color:#000000;stop-opacity:1;"
         offset="0"
         id="stop8854" />
      <stop
         style="stop-color:#000000;stop-opacity:0;"
         offset="1"
         id="stop8856" />
    </linearGradient>
    <linearGradient
       id="linearGradient8808"
       osb:paint="solid">
      <stop
         style="stop-color:#000000;stop-opacity:1;"
         offset="0"
         id="stop8810" />
    </linearGradient>
    <linearGradient
       id="linearGradient8324">
      <stop
         id="stop8326"
         offset="0"
         style="stop-color:#ff6c00;stop-opacity:1;" />
      <stop
         style="stop-color:#7f3600;stop-opacity:0.49803922;"
         offset="0.4858388"
         id="stop8332" />
      <stop
         id="stop8328"
         offset="1"
         style="stop-color:#000000;stop-opacity:0;" />
    </linearGradient>
    <linearGradient
       id="linearGradient8304"
       osb:paint="solid">
      <stop
         style="stop-color:#ffffff;stop-opacity:1;"
         offset="0"
         id="stop8306" />
    </linearGradient>
    <linearGradient
       id="linearGradient6844">
      <stop
         style="stop-color:#000000;stop-opacity:1;"
         offset="0"
         id="stop6846" />
      <stop
         style="stop-color:#000000;stop-opacity:0;"
         offset="1"
         id="stop6848" />
    </linearGradient>
    <linearGradient
       id="linearGradient6633"
       osb:paint="solid">
      <stop
         style="stop-color:#ffffff;stop-opacity:1;"
         offset="0"
         id="stop6635" />
    </linearGradient>
    <marker
       inkscape:stockid="RazorWire"
       id="RazorWire"
       refX="0"
       refY="0"
       orient="auto"
       style="overflow:visible">
      <path
         id="path4195"
         transform="scale(0.8,0.8)"
         style="fill:#808080;fill-opacity:1;fill-rule:evenodd;stroke:#000000;stroke-width:0.1pt"
         d="M 0.022727273,-0.74009011 L 0.022727273,0.69740989 L -7.7585227,3.0099099 L 10.678977,3.0099099 L 3.4914773,0.69740989 L 3.4914773,-0.74009011 L 10.741477,-2.8963401 L -7.7272727,-2.8963401 L 0.022727273,-0.74009011 z " />
    </marker>
    <marker
       inkscape:stockid="Club"
       orient="auto"
       refY="0.0"
       refX="0.0"
       id="Club"
       style="overflow:visible">
      <path
         id="path4192"
         d="M -1.5971367,-7.0977635 C -3.4863874,-7.0977635 -5.0235187,-5.5606321 -5.0235187,-3.6713813 C -5.0235187,-3.0147015 -4.7851656,-2.4444556 -4.4641095,-1.9232271 C -4.5028609,-1.8911157 -4.5437814,-1.8647646 -4.5806531,-1.8299921 C -5.2030765,-2.6849849 -6.1700514,-3.2751330 -7.3077730,-3.2751330 C -9.1970245,-3.2751331 -10.734155,-1.7380016 -10.734155,0.15124914 C -10.734155,2.0404999 -9.1970245,3.5776313 -7.3077730,3.5776313 C -6.3143268,3.5776313 -5.4391540,3.1355702 -4.8137404,2.4588126 C -4.9384274,2.8137041 -5.0235187,3.1803000 -5.0235187,3.5776313 C -5.0235187,5.4668819 -3.4863874,7.0040135 -1.5971367,7.0040135 C 0.29211394,7.0040135 1.8292454,5.4668819 1.8292454,3.5776313 C 1.8292454,2.7842354 1.5136868,2.0838028 1.0600576,1.5031550 C 2.4152718,1.7663868 3.7718375,2.2973711 4.7661444,3.8340272 C 4.0279463,3.0958289 3.5540908,1.7534117 3.5540908,-0.058529361 L 2.9247554,-0.10514681 L 3.5074733,-0.12845553 C 3.5074733,-1.9403966 3.9580199,-3.2828138 4.6962183,-4.0210121 C 3.7371277,-2.5387813 2.4390549,-1.9946496 1.1299838,-1.7134486 C 1.5341802,-2.2753578 1.8292454,-2.9268556 1.8292454,-3.6713813 C 1.8292454,-5.5606319 0.29211394,-7.0977635 -1.5971367,-7.0977635 z "
         style="fill-rule:evenodd;stroke:#000000;stroke-width:0.74587913pt"
         transform="scale(0.6)" />
    </marker>
    <marker
       inkscape:stockid="Torso"
       orient="auto"
       refY="0.0"
       refX="0.0"
       id="Torso"
       style="overflow:visible">
      <g
         id="g4175"
         transform="scale(0.7)">
        <path
           id="path4177"
           d="M -4.7792281,-3.2395420 C -2.4288541,-2.8736027 0.52103922,-1.3019943 0.25792722,0.38794346 C -0.0051877922,2.0778819 -2.2126741,2.6176539 -4.5630471,2.2517169 C -6.9134221,1.8857769 -8.5210350,0.75201414 -8.2579220,-0.93792336 C -7.9948090,-2.6278615 -7.1296041,-3.6054813 -4.7792281,-3.2395420 z "
           style="fill:none;fill-opacity:0.75000000;fill-rule:evenodd;stroke:#000000;stroke-width:1.2500000" />
        <path
           id="path4179"
           d="M 4.4598789,0.088665736 C -2.5564571,-4.3783320 5.2248769,-3.9061806 -0.84829578,-8.7197331"
           style="fill:none;fill-opacity:0.75000000;fill-rule:evenodd;stroke:#000000;stroke-width:1.0000000pt" />
        <path
           id="path4181"
           d="M 4.9298719,0.057520736 C -1.3872731,1.7494689 1.8027579,5.4782079 -4.9448731,7.5462725"
           style="fill:none;fill-opacity:0.75000000;fill-rule:evenodd;stroke:#000000;stroke-width:1.0000000pt" />
        <rect
           id="rect4183"
           transform="matrix(0.527536,-0.849533,0.887668,0.460484,0,0)"
           y="-1.7408575"
           x="-10.391706"
           height="2.7608147"
           width="2.6366582"
           style="fill-rule:evenodd;stroke-width:1.0000000pt" />
        <rect
           id="rect4185"
           transform="matrix(0.671205,-0.741272,0.790802,0.612072,0,0)"
           y="-7.9629307"
           x="4.9587269"
           height="2.8614161"
           width="2.7327356"
           style="fill-rule:evenodd;stroke-width:1.0000000pt" />
        <path
           id="path4187"
           transform="matrix(0,-1.109517,1.109517,0,25.96648,19.71619)"
           d="M 16.779951 -28.685045 A 0.60731727 0.60731727 0 1 0 15.565317,-28.685045 A 0.60731727 0.60731727 0 1 0 16.779951 -28.685045 z"
           style="fill:#ff0000;fill-opacity:0.75000000;fill-rule:evenodd;stroke:#000000;stroke-width:1.0000000pt" />
        <path
           id="path4189"
           transform="matrix(0,-1.109517,1.109517,0,26.82450,16.99126)"
           d="M 16.779951 -28.685045 A 0.60731727 0.60731727 0 1 0 15.565317,-28.685045 A 0.60731727 0.60731727 0 1 0 16.779951 -28.685045 z"
           style="fill:#ff0000;fill-opacity:0.75000000;fill-rule:evenodd;stroke:#000000;stroke-width:1.0000000pt" />
      </g>
    </marker>
    <marker
       inkscape:stockid="Scissors"
       orient="auto"
       refY="0.0"
       refX="0.0"
       id="Scissors"
       style="overflow:visible">
      <path
         id="schere"
         d="M 9.0898857,-3.6061018 C 8.1198849,-4.7769976 6.3697607,-4.7358294 5.0623558,-4.2327734 L -3.1500488,-1.1548705 C -5.5383421,-2.4615840 -7.8983361,-2.0874077 -7.8983361,-2.7236578 C -7.8983361,-3.2209742 -7.4416699,-3.1119800 -7.5100293,-4.4068519 C -7.5756648,-5.6501286 -8.8736064,-6.5699315 -10.100428,-6.4884954 C -11.327699,-6.4958500 -12.599867,-5.5553341 -12.610769,-4.2584343 C -12.702194,-2.9520479 -11.603560,-1.7387447 -10.304005,-1.6532027 C -8.7816644,-1.4265411 -6.0857470,-2.3487593 -4.8210600,-0.082342643 C -5.7633447,1.6559151 -7.4350844,1.6607341 -8.9465707,1.5737277 C -10.201445,1.5014928 -11.708664,1.8611256 -12.307219,3.0945882 C -12.885586,4.2766744 -12.318421,5.9591904 -10.990470,6.3210002 C -9.6502788,6.8128279 -7.8098011,6.1912892 -7.4910978,4.6502760 C -7.2454393,3.4624530 -8.0864637,2.9043186 -7.7636052,2.4731223 C -7.5199917,2.1477623 -5.9728246,2.3362771 -3.2164999,1.0982979 L 5.6763468,4.2330688 C 6.8000164,4.5467672 8.1730685,4.5362646 9.1684433,3.4313614 L -0.051640930,-0.053722219 L 9.0898857,-3.6061018 z M -9.2179159,-5.5066058 C -7.9233569,-4.7838060 -8.0290767,-2.8230356 -9.3743431,-2.4433169 C -10.590861,-2.0196559 -12.145370,-3.2022863 -11.757521,-4.5207817 C -11.530373,-5.6026336 -10.104134,-6.0014137 -9.2179159,-5.5066058 z M -9.1616516,2.5107591 C -7.8108215,3.0096239 -8.0402087,5.2951947 -9.4138723,5.6023681 C -10.324932,5.9187072 -11.627422,5.4635705 -11.719569,4.3902287 C -11.897178,3.0851737 -10.363484,1.9060805 -9.1616516,2.5107591 z "
         style="fill:#000000;" />
    </marker>
    <marker
       inkscape:stockid="TriangleInL"
       orient="auto"
       refY="0.0"
       refX="0.0"
       id="TriangleInL"
       style="overflow:visible">
      <path
         id="path4096"
         d="M 5.77,0.0 L -2.88,5.0 L -2.88,-5.0 L 5.77,0.0 z "
         style="fill-rule:evenodd;stroke:#000000;stroke-width:1.0pt"
         transform="scale(-0.8)" />
    </marker>
    <marker
       inkscape:stockid="TriangleOutL"
       orient="auto"
       refY="0.0"
       refX="0.0"
       id="TriangleOutL"
       style="overflow:visible">
      <path
         id="path4105"
         d="M 5.77,0.0 L -2.88,5.0 L -2.88,-5.0 L 5.77,0.0 z "
         style="fill-rule:evenodd;stroke:#000000;stroke-width:1.0pt"
         transform="scale(0.8)" />
    </marker>
    <marker
       inkscape:stockid="Arrow2Lstart"
       orient="auto"
       refY="0.0"
       refX="0.0"
       id="Arrow2Lstart"
       style="overflow:visible">
      <path
         id="path3981"
         style="fill-rule:evenodd;stroke-width:0.62500000;stroke-linejoin:round"
         d="M 8.7185878,4.0337352 L -2.2072895,0.016013256 L 8.7185884,-4.0017078 C 6.9730900,-1.6296469 6.9831476,1.6157441 8.7185878,4.0337352 z "
         transform="scale(1.1) translate(1,0)" />
    </marker>
    <marker
       inkscape:stockid="SemiCircleIn"
       orient="auto"
       refY="0.0"
       refX="0.0"
       id="SemiCircleIn"
       style="overflow:visible">
      <path
         id="path4141"
         d="M -0.37450702,-0.045692580 C -0.37450702,2.7143074 1.8654930,4.9543074 4.6254930,4.9543074 L 4.6254930,-5.0456926 C 1.8654930,-5.0456926 -0.37450702,-2.8056926 -0.37450702,-0.045692580 z "
         style="fill-rule:evenodd;stroke:#000000;stroke-width:1.0pt"
         transform="scale(0.6)" />
    </marker>
    <marker
       inkscape:stockid="SemiCircleOut"
       orient="auto"
       refY="0.0"
       refX="0.0"
       id="SemiCircleOut"
       style="overflow:visible">
      <path
         id="path4144"
         d="M -2.5,-0.80913858 C -2.5,1.9508614 -4.7400000,4.1908614 -7.5,4.1908614 L -7.5,-5.8091386 C -4.7400000,-5.8091386 -2.5,-3.5691386 -2.5,-0.80913858 z "
         style="fill-rule:evenodd;stroke:#000000;stroke-width:1.0pt"
         transform="scale(0.6) translate(7.125493,0.763446)" />
    </marker>
    <linearGradient
       inkscape:collect="always"
       xlink:href="#linearGradient8324"
       id="linearGradient8838"
       x1="140.54555"
       y1="198.23885"
       x2="342.30389"
       y2="198.23885"
       gradientUnits="userSpaceOnUse"
       gradientTransform="translate(374.28571,-17.857143)" />
    <linearGradient
       inkscape:collect="always"
       xlink:href="#linearGradient8852"
       id="linearGradient8858"
       x1="259.28571"
       y1="82.362183"
       x2="449.28571"
       y2="82.362183"
       gradientUnits="userSpaceOnUse"
       spreadMethod="pad"
       gradientTransform="translate(-711.43159,-164.71136)" />
    <linearGradient
       inkscape:collect="always"
       xlink:href="#linearGradient8852-8"
       id="linearGradient8858-5"
       x1="259.28571"
       y1="82.362183"
       x2="449.28571"
       y2="82.362183"
       gradientUnits="userSpaceOnUse"
       spreadMethod="pad"
       gradientTransform="translate(-708.57441,-164.71147)" />
    <linearGradient
       inkscape:collect="always"
       id="linearGradient8852-8">
      <stop
         style="stop-color:#000000;stop-opacity:1;"
         offset="0"
         id="stop8854-8" />
      <stop
         style="stop-color:#000000;stop-opacity:0;"
         offset="1"
         id="stop8856-1" />
    </linearGradient>
    <linearGradient
       y2="82.362183"
       x2="449.28571"
       y1="82.362183"
       x1="259.28571"
       spreadMethod="pad"
       gradientTransform="translate(-711.43322,-209.85421)"
       gradientUnits="userSpaceOnUse"
       id="linearGradient8875"
       xlink:href="#linearGradient8852-8"
       inkscape:collect="always" />
    <linearGradient
       y2="82.362183"
       x2="449.28571"
       y1="82.362183"
       x1="259.28571"
       spreadMethod="pad"
       gradientTransform="translate(-707.86159,-204.71149)"
       gradientUnits="userSpaceOnUse"
       id="linearGradient8875-1"
       xlink:href="#linearGradient8852-8-4"
       inkscape:collect="always" />
    <linearGradient
       inkscape:collect="always"
       id="linearGradient8852-8-4">
      <stop
         style="stop-color:#000000;stop-opacity:1;"
         offset="0"
         id="stop8854-8-9" />
      <stop
         style="stop-color:#000000;stop-opacity:0;"
         offset="1"
         id="stop8856-1-8" />
    </linearGradient>
    <linearGradient
       y2="82.362183"
       x2="449.28571"
       y1="82.362183"
       x1="259.28571"
       spreadMethod="pad"
       gradientTransform="translate(-711.43483,-254.99706)"
       gradientUnits="userSpaceOnUse"
       id="linearGradient8909"
       xlink:href="#linearGradient8852-8-4"
       inkscape:collect="always" />
    <linearGradient
       inkscape:collect="always"
       xlink:href="#linearGradient8852-8-4"
       id="linearGradient8930"
       gradientUnits="userSpaceOnUse"
       gradientTransform="translate(-711.43645,-300.13994)"
       spreadMethod="pad"
       x1="259.28571"
       y1="82.362183"
       x2="449.28571"
       y2="82.362183" />
    <linearGradient
       inkscape:collect="always"
       xlink:href="#linearGradient8852-8-4"
       id="linearGradient8934"
       gradientUnits="userSpaceOnUse"
       gradientTransform="translate(-711.43811,-345.28278)"
       spreadMethod="pad"
       x1="259.28571"
       y1="82.362183"
       x2="449.28571"
       y2="82.362183" />
    <linearGradient
       inkscape:collect="always"
       xlink:href="#linearGradient8852-8-4"
       id="linearGradient8938"
       gradientUnits="userSpaceOnUse"
       gradientTransform="translate(-711.43974,-390.42566)"
       spreadMethod="pad"
       x1="259.28571"
       y1="82.362183"
       x2="449.28571"
       y2="82.362183" />
    <linearGradient
       inkscape:collect="always"
       xlink:href="#linearGradient8852"
       id="linearGradient9038"
       gradientUnits="userSpaceOnUse"
       gradientTransform="matrix(0.91365132,0,0,1.9793571,-680.20249,-265.22936)"
       spreadMethod="pad"
       x1="259.28571"
       y1="82.362183"
       x2="449.28571"
       y2="82.362183" />
    <linearGradient
       inkscape:collect="always"
       xlink:href="#linearGradient8852"
       id="linearGradient9042"
       gradientUnits="userSpaceOnUse"
       gradientTransform="matrix(0.91365132,0,0,1.9793571,-680.20411,-360.2468)"
       spreadMethod="pad"
       x1="259.28571"
       y1="82.362183"
       x2="449.28571"
       y2="82.362183" />
    <linearGradient
       inkscape:collect="always"
       xlink:href="#linearGradient8852"
       id="linearGradient9046"
       gradientUnits="userSpaceOnUse"
       gradientTransform="matrix(0.91365132,0,0,1.9793571,-680.20571,-455.26431)"
       spreadMethod="pad"
       x1="259.28571"
       y1="82.362183"
       x2="449.28571"
       y2="82.362183" />
  </defs>
  <sodipodi:namedview
     id="base"
     pagecolor="#ffffff"
     bordercolor="#666666"
     borderopacity="1.0"
     inkscape:pageopacity="0.0"
     inkscape:pageshadow="2"
     inkscape:zoom="0.90509668"
     inkscape:cx="-71.272726"
     inkscape:cy="652.7822"
     inkscape:document-units="px"
     inkscape:current-layer="layer3"
     showgrid="false"
     inkscape:window-width="1920"
     inkscape:window-height="1024"
     inkscape:window-x="-4"
     inkscape:window-y="-4"
     inkscape:window-maximized="1" />
  <metadata
     id="metadata7">
    <rdf:RDF>
      <cc:Work
         rdf:about="">
        <dc:format>image/svg+xml</dc:format>
        <dc:type
           rdf:resource="http://purl.org/dc/dcmitype/StillImage" />
        <dc:title></dc:title>
      </cc:Work>
    </rdf:RDF>
  </metadata>
  <g
     inkscape:groupmode="layer"
     id="layer5"
     inkscape:label="Calque"
     style="display:none">
    <rect
       style="fill:#a49c6f;fill-opacity:1;stroke:#000000;stroke-width:11.16517067;stroke-linejoin:round;stroke-miterlimit:4;stroke-opacity:1;stroke-dasharray:none"
       id="rect9080"
       width="509.3483"
       height="408.93103"
       x="36.409046"
       y="-0.58263934"
       ry="97.486526" />
  </g>
  <g
     inkscape:groupmode="layer"
     id="layer2"
     inkscape:label="jar1"
     style="display:none">
    <g
       style="display:inline"
       id="g6563"
       transform="matrix(0.27151715,0,0,0.30338092,105.40327,-7.2523531)">
      <rect
         ry="21.878372"
         y="234.65038"
         x="73.601677"
         height="43.756744"
         width="251.01091"
         id="rect2985"
         style="fill:#a82c7c;fill-opacity:1;stroke:none" />
      <rect
         ry="21.878372"
         y="299.27573"
         x="83.417747"
         height="225.51547"
         width="231.37877"
         id="rect3763"
         style="fill:#a82c7c;fill-opacity:1;stroke:#a82c7c;stroke-width:14.42746258;stroke-linejoin:round;stroke-miterlimit:4;stroke-opacity:1;stroke-dasharray:none" />
    </g>
    <g
       style="display:inline"
       transform="matrix(0.27151715,0,0,0.30338092,183.2604,-7.9666431)"
       id="g6567">
      <rect
         style="fill:#a82c7c;fill-opacity:1;stroke:none"
         id="rect6569"
         width="251.01091"
         height="43.756744"
         x="73.601677"
         y="234.65038"
         ry="21.878372" />
      <rect
         style="fill:#a82c7c;fill-opacity:1;stroke:#a82c7c;stroke-width:14.42746258;stroke-linejoin:round;stroke-miterlimit:4;stroke-opacity:1;stroke-dasharray:none"
         id="rect6571"
         width="231.37877"
         height="225.51547"
         x="83.417747"
         y="299.27573"
         ry="21.878372" />
    </g>
    <g
       style="display:inline"
       transform="matrix(0.27151715,0,0,0.30338092,105.40327,92.033357)"
       id="g6597">
      <rect
         style="fill:#a82c7c;fill-opacity:1;stroke:none"
         id="rect6599"
         width="251.01091"
         height="43.756744"
         x="73.601677"
         y="234.65038"
         ry="21.878372" />
      <rect
         style="fill:#a82c7c;fill-opacity:1;stroke:#a82c7c;stroke-width:14.42746258;stroke-linejoin:round;stroke-miterlimit:4;stroke-opacity:1;stroke-dasharray:none"
         id="rect6601"
         width="231.37877"
         height="225.51547"
         x="83.417747"
         y="299.27573"
         ry="21.878372" />
    </g>
    <g
       style="display:inline"
       id="g6603"
       transform="matrix(0.27151715,0,0,0.30338092,183.2604,91.319067)">
      <rect
         ry="21.878372"
         y="234.65038"
         x="73.601677"
         height="43.756744"
         width="251.01091"
         id="rect6605"
         style="fill:#a82c7c;fill-opacity:1;stroke:none" />
      <rect
         ry="21.878372"
         y="299.27573"
         x="83.417747"
         height="225.51547"
         width="231.37877"
         id="rect6607"
         style="fill:#a82c7c;fill-opacity:1;stroke:#a82c7c;stroke-width:14.42746258;stroke-linejoin:round;stroke-miterlimit:4;stroke-opacity:1;stroke-dasharray:none" />
    </g>
    <g
       style="display:inline"
       id="g6615"
       transform="matrix(0.27151715,0,0,0.30338092,105.40327,190.60479)">
      <rect
         ry="21.878372"
         y="234.65038"
         x="73.601677"
         height="43.756744"
         width="251.01091"
         id="rect6617"
         style="fill:#a82c7c;fill-opacity:1;stroke:none" />
      <rect
         ry="21.878372"
         y="299.27573"
         x="83.417747"
         height="225.51547"
         width="231.37877"
         id="rect6619"
         style="fill:#a82c7c;fill-opacity:1;stroke:#a82c7c;stroke-width:14.42746258;stroke-linejoin:round;stroke-miterlimit:4;stroke-opacity:1;stroke-dasharray:none" />
    </g>
    <g
       style="display:inline"
       transform="matrix(0.27151715,0,0,0.30338092,183.2604,189.8905)"
       id="g6621">
      <rect
         style="fill:#a82c7c;fill-opacity:1;stroke:none"
         id="rect6623"
         width="251.01091"
         height="43.756744"
         x="73.601677"
         y="234.65038"
         ry="21.878372" />
      <rect
         style="fill:#a82c7c;fill-opacity:1;stroke:#a82c7c;stroke-width:14.42746258;stroke-linejoin:round;stroke-miterlimit:4;stroke-opacity:1;stroke-dasharray:none"
         id="rect6625"
         width="231.37877"
         height="225.51547"
         x="83.417747"
         y="299.27573"
         ry="21.878372" />
    </g>
  </g>
  <g
     inkscape:label="Calque 1"
     inkscape:groupmode="layer"
     id="layer1"
     style="display:none">
    <rect
       style="fill:#ffffff;fill-opacity:0.67171715;stroke:#ff6c00;stroke-width:15;stroke-linejoin:round;stroke-miterlimit:4;stroke-opacity:1;stroke-dasharray:none"
       id="rect3765"
       width="232.85715"
       height="315"
       x="239.28572"
       y="45.933613"
       ry="23.214281" />
    <rect
       style="fill:url(#linearGradient8858);fill-opacity:1;stroke:none"
       id="rect8850"
       width="190"
       height="21.428572"
       x="-452.14587"
       y="-93.063461"
       ry="10.714286"
       transform="matrix(-1,-3.6396414e-5,3.6396414e-5,-1,0,0)" />
    <rect
       style="fill:url(#linearGradient8875);fill-opacity:1;stroke:none"
       id="rect8850-2"
       width="190"
       height="21.428572"
       x="-452.14752"
       y="-138.20631"
       ry="10.714286"
       transform="matrix(-1,-3.6396414e-5,3.6396414e-5,-1,0,0)" />
    <rect
       style="fill:url(#linearGradient8909);fill-opacity:1;stroke:none"
       id="rect8850-2-2"
       width="190"
       height="21.428572"
       x="-452.14917"
       y="-183.34915"
       ry="10.714286"
       transform="matrix(-1,-3.6396414e-5,3.6396414e-5,-1,0,0)" />
    <rect
       transform="matrix(-1,-3.6396414e-5,3.6396414e-5,-1,0,0)"
       ry="10.714286"
       y="-228.49203"
       x="-452.15082"
       height="21.428572"
       width="190"
       id="rect8928"
       style="fill:url(#linearGradient8930);fill-opacity:1;stroke:none" />
    <rect
       style="fill:url(#linearGradient8934);fill-opacity:1;stroke:none"
       id="rect8932"
       width="190"
       height="21.428572"
       x="-452.15244"
       y="-273.63489"
       ry="10.714286"
       transform="matrix(-1,-3.6396414e-5,3.6396414e-5,-1,0,0)" />
    <rect
       transform="matrix(-1,-3.6396414e-5,3.6396414e-5,-1,0,0)"
       ry="10.714286"
       y="-318.77774"
       x="-452.15408"
       height="21.428572"
       width="190"
       id="rect8936"
       style="fill:url(#linearGradient8938);fill-opacity:1;stroke:none" />
  </g>
  <g
     style="display:none"
     id="g9022"
     inkscape:groupmode="layer"
     inkscape:label="big xml">
    <rect
       ry="23.214281"
       y="45.933613"
       x="239.28572"
       height="315"
       width="232.85715"
       id="rect9024"
       style="fill:#ffffff;fill-opacity:1;stroke:#ff6c00;stroke-width:30;stroke-linejoin:round;stroke-miterlimit:4;stroke-opacity:1;stroke-dasharray:none" />
    <rect
       transform="matrix(-1,-7.8850102e-5,1.6800219e-5,-1,0,0)"
       ry="21.207397"
       y="-123.41258"
       x="-443.30579"
       height="42.414795"
       width="173.59375"
       id="rect9026"
       style="fill:url(#linearGradient9038);fill-opacity:1;stroke:none" />
    <rect
       style="fill:url(#linearGradient9042);fill-opacity:1;stroke:none"
       id="rect9040"
       width="173.59375"
       height="42.414795"
       x="-443.30737"
       y="-218.43002"
       ry="21.207397"
       transform="matrix(-1,-7.8850102e-5,1.6800219e-5,-1,0,0)" />
    <rect
       transform="matrix(-1,-7.8850102e-5,1.6800219e-5,-1,0,0)"
       ry="21.207397"
       y="-313.44751"
       x="-443.30899"
       height="42.414795"
       width="173.59375"
       id="rect9044"
       style="fill:url(#linearGradient9046);fill-opacity:1;stroke:none" />
  </g>
  <g
     inkscape:groupmode="layer"
     id="g9048"
     inkscape:label="big jar"
     style="display:inline">
    <g
       style="display:inline"
       id="g9050"
       transform="matrix(0.79665419,0,0,1.1294388,25.091442,-228.77325)">
      <rect
         ry="21.191833"
         y="239.75517"
         x="73.297615"
         height="42.383667"
         width="251.59952"
         id="rect9052"
         style="fill:#a82c7c;fill-opacity:1;stroke:none" />
      <rect
         ry="19.880264"
         y="307.45407"
         x="90.620987"
         height="204.91957"
         width="225.29352"
         id="rect9054"
         style="fill:#a82c7c;fill-opacity:1;stroke:#a82c7c;stroke-width:29.74891281;stroke-linejoin:round;stroke-miterlimit:4;stroke-opacity:1;stroke-dasharray:none" />
    </g>
  </g>
  <g
     inkscape:label="Copie de big xml"
     inkscape:groupmode="layer"
     id="g3099"
     style="display:none">
    <rect
       style="fill:#ffffff;fill-opacity:1;stroke:#ff6c00;stroke-width:30;stroke-linejoin:round;stroke-miterlimit:4;stroke-opacity:1;stroke-dasharray:none"
       id="rect3101"
       width="232.85715"
       height="315"
       x="239.28572"
       y="45.933613"
       ry="23.214281" />
    <rect
       style="fill:#000000;fill-opacity:1;stroke:none"
       id="rect3103"
       width="173.59375"
       height="42.414795"
       x="-443.30579"
       y="-123.41258"
       ry="21.207397"
       transform="matrix(-1,-7.8850102e-5,1.6800219e-5,-1,0,0)" />
    <rect
       transform="matrix(-1,-7.8850102e-5,1.6800219e-5,-1,0,0)"
       ry="21.207397"
       y="-218.43002"
       x="-443.30737"
       height="42.414795"
       width="173.59375"
       id="rect3105"
       style="fill:#000000;fill-opacity:1;stroke:none" />
    <rect
       style="fill:#000000;fill-opacity:1;stroke:none"
       id="rect3107"
       width="173.59375"
       height="42.414795"
       x="-443.30899"
       y="-313.44751"
       ry="21.207397"
       transform="matrix(-1,-7.8850102e-5,1.6800219e-5,-1,0,0)" />
  </g>
  <g
     style="display:inline"
     id="g3952"
     inkscape:groupmode="layer"
     inkscape:label="Copie de Copie de big xml">
    <rect
       ry="23.214281"
       y="45.933613"
       x="239.28572"
       height="315"
       width="232.85715"
       id="rect3954"
       style="fill:#ff6c00;fill-opacity:1;stroke:#ff6c00;stroke-width:30;stroke-linejoin:round;stroke-miterlimit:4;stroke-opacity:1;stroke-dasharray:none" />
    <rect
       transform="matrix(-1,-7.8850102e-5,1.6800219e-5,-1,0,0)"
       ry="21.207397"
       y="-123.41258"
       x="-443.30579"
       height="42.414795"
       width="173.59375"
       id="rect3956"
       style="fill:#000000;fill-opacity:1;stroke:none" />
    <rect
       style="fill:#000000;fill-opacity:1;stroke:none"
       id="rect3958"
       width="173.59375"
       height="42.414795"
       x="-443.30737"
       y="-218.43002"
       ry="21.207397"
       transform="matrix(-1,-7.8850102e-5,1.6800219e-5,-1,0,0)" />
    <rect
       transform="matrix(-1,-7.8850102e-5,1.6800219e-5,-1,0,0)"
       ry="21.207397"
       y="-313.44751"
       x="-443.30899"
       height="42.414795"
       width="173.59375"
       id="rect3960"
       style="fill:#000000;fill-opacity:1;stroke:none" />
  </g>
  <g
     inkscape:groupmode="layer"
     id="layer3"
     inkscape:label="Calque#1"
     style="display:inline">
    <path
       sodipodi:type="arc"
       style="fill:#ffffff;fill-opacity:1;stroke:#ff6c00;stroke-width:53.51351695999999700;stroke-linecap:butt;stroke-linejoin:miter;stroke-miterlimit:4;stroke-opacity:1;stroke-dasharray:none;stroke-dashoffset:0;marker-start:none;marker-mid:none"
       id="path3963"
       sodipodi:cx="278.125"
       sodipodi:cy="516.42468"
       sodipodi:rx="118.75"
       sodipodi:ry="118.75"
       d="m 396.875,516.42468 a 118.75,118.75 0 1 1 -237.5,0 118.75,118.75 0 1 1 237.5,0 z"
       transform="matrix(-0.28030303,0,0,-0.28030303,304.52178,342.43008)" />
  </g>
</svg>
